<svg width="34" height="48" viewBox="0 0 34 48" fill="none" xmlns="http://www.w3.org/2000/svg">
<mask id="path-1-inside-1_48_115" fill="white">
<path d="M34 0L0 24L34 48"/>
</mask>
<path d="M37.4601 4.90181C40.1673 2.99085 40.8128 -0.752906 38.9018 -3.4601C36.9908 -6.16729 33.2471 -6.81277 30.5399 -4.90181L37.4601 4.90181ZM0 24L-3.4601 19.0982C-5.05281 20.2225 -6 22.0505 -6 24C-6 25.9495 -5.05281 27.7775 -3.4601 28.9018L0 24ZM30.5399 52.9018C33.2471 54.8128 36.9908 54.1673 38.9018 51.4601C40.8128 48.7529 40.1673 45.0092 37.4601 43.0982L30.5399 52.9018ZM30.5399 -4.90181L-3.4601 19.0982L3.4601 28.9018L37.4601 4.90181L30.5399 -4.90181ZM-3.4601 28.9018L30.5399 52.9018L37.4601 43.0982L3.4601 19.0982L-3.4601 28.9018Z" fill="black" mask="url(#path-1-inside-1_48_115)"/>
</svg>
