<svg width="61" height="60" viewBox="0 0 61 60" fill="none" xmlns="http://www.w3.org/2000/svg">
<path d="M30.5 0C24.5666 0 18.7664 1.75947 13.8329 5.05591C8.89943 8.35235 5.05426 13.0377 2.78363 18.5195C0.512998 24.0013 -0.0811014 30.0333 1.07645 35.8527C2.23401 41.6721 5.09123 47.0176 9.28681 51.2132C13.4824 55.4088 18.8279 58.266 24.6473 59.4235C30.4667 60.5811 36.4987 59.987 41.9805 57.7164C47.4623 55.4457 52.1476 51.6006 55.4441 46.6671C58.7405 41.7336 60.5 35.9334 60.5 30C60.5 22.0435 57.3393 14.4129 51.7132 8.78679C46.0871 3.1607 38.4565 0 30.5 0ZM30.6125 33.15C30.2958 33.1525 29.9817 33.0922 29.6883 32.9727C29.395 32.8532 29.1282 32.6768 28.9033 32.4537C28.6785 32.2306 28.5 31.9652 28.3782 31.6728C28.2564 31.3804 28.1937 31.0667 28.1938 30.75V12.4687C28.1938 11.8273 28.4486 11.212 28.9022 10.7584C29.3558 10.3048 29.971 10.05 30.6125 10.05C31.254 10.05 31.8692 10.3048 32.3228 10.7584C32.7764 11.212 33.0313 11.8273 33.0313 12.4687V30.75C33.0313 31.0667 32.9686 31.3804 32.8468 31.6728C32.725 31.9652 32.5465 32.2306 32.3217 32.4537C32.0968 32.6768 31.8301 32.8532 31.5367 32.9727C31.2434 33.0922 30.9293 33.1525 30.6125 33.15ZM30.5 48.3562C26.5509 48.403 22.6902 47.1864 19.4813 44.884C16.2725 42.5816 13.8834 39.314 12.6628 35.5579C11.4422 31.8019 11.4539 27.754 12.6963 24.0051C13.9386 20.2562 16.3466 17.0025 19.5688 14.7187C20.13 14.3187 20.826 14.1555 21.5066 14.2642C22.1871 14.373 22.7976 14.745 23.2063 15.3C23.4057 15.5741 23.549 15.8849 23.6278 16.2146C23.7065 16.5443 23.7193 16.8864 23.6653 17.221C23.6112 17.5557 23.4915 17.8763 23.3129 18.1645C23.1344 18.4526 22.9006 18.7026 22.625 18.9C20.7716 20.2611 19.2978 22.0743 18.344 24.1666C17.3902 26.2589 16.9883 28.5607 17.1764 30.8525C17.3646 33.1442 18.1367 35.3496 19.4191 37.2583C20.7014 39.167 22.4513 40.7154 24.5019 41.756C26.5524 42.7965 28.8354 43.2945 31.133 43.2024C33.4306 43.1103 35.6664 42.4312 37.6271 41.2299C39.5878 40.0285 41.2081 38.345 42.3336 36.3398C43.459 34.3345 44.0521 32.0745 44.0563 29.775C44.05 27.6563 43.5359 25.57 42.5572 23.6909C41.5785 21.8118 40.1637 20.1947 38.4313 18.975C37.8978 18.554 37.5529 17.9388 37.4721 17.2641C37.3913 16.5893 37.5811 15.9101 38 15.375C38.4142 14.8259 39.0274 14.4613 39.7076 14.3596C40.3879 14.2579 41.0808 14.4273 41.6375 14.8312C44.826 17.1411 47.1956 20.4069 48.4025 24.1546C49.6094 27.9023 49.5909 31.9371 48.3496 35.6736C47.1083 39.4101 44.7088 42.6539 41.4992 44.9344C38.2896 47.2149 34.4369 48.4135 30.5 48.3562Z" fill="black"/>
</svg>
